<svg id="Agrupar_1" data-name="Agrupar 1" xmlns="http://www.w3.org/2000/svg" width="385" height="67" viewBox="0 0 451.594 78.031">
  <defs>
    <style>
      .cls-1 {
        fill: #007d32;
      }

      .cls-1, .cls-2 {
        fill-rule: evenodd;
      }

      .cls-2 {
        fill: #1aa652;
      }
    </style>
  </defs>
  <path id="VerdeVida" class="cls-1" d="M34.206,223.622c-12.125,9.036-14.641,24.592-8.121,33.514a18.128,18.128,0,0,0,12.353,7.206c6.863,1.029,12.124-1.144,14.183-4.461,1.944-3.089.686-6.749-2.516-7.778a8.7,8.7,0,0,0-2.4-.343H45.987l-1.258.114H44.157c-6.405.114-9.837-4.918-7.206-11.781a14.478,14.478,0,0,1,3.66-5.6,14.079,14.079,0,0,1,6.291-3.546c6.062-1.373,8.235,1.029,8.807,12.125a29.953,29.953,0,0,1,.114,3.2l0.8,33.857c0.229,7.321,3.546,10.409,9.608,9.265,2.4-.457,4.461-2.058,7.092-6.519l31-52.044h7.092a8.245,8.245,0,0,0,6.863-3.546c2.288-3.317.915-7.206-1.944-8.007a6.716,6.716,0,0,0-2.631-.458H101.577c-4,0-7.206,3.661-7.206,3.661-0.572,1.144-1.144,2.173-1.144,2.173L68.75,266.172l0.114-19.9c0-23.791-6.177-30.54-23.105-27.68A25.393,25.393,0,0,0,34.206,223.622Zm84.771,25.049a22.473,22.473,0,0,0-16.243,12.582,20.93,20.93,0,0,0-2.173,6.863c-1.944,12.354,4.118,19.331,15.9,19.331H131.9a7.337,7.337,0,0,0,6.291-3.2c2.059-3.088.8-6.634-1.716-7.435a8.736,8.736,0,0,0-2.4-.343H117.947c-3.889,0-5.376-1.144-5.719-3.774h10.066c10.98,0,16.128-5.72,14.412-14.527C135.333,251.531,128.47,246.956,118.977,248.671Zm-3.432,13.383a7.412,7.412,0,0,1,4.575-3.2c3.661-.686,5.376.687,5.262,2.4a1.718,1.718,0,0,1-1.258,1.716,8.707,8.707,0,0,1-3.889.572H114.63A10.477,10.477,0,0,1,115.545,262.054Zm29.975,7.778c2.631,0,4.461-1.373,6.177-5.605L153.413,260h5.261a9.12,9.12,0,0,0-1.716,1.945c-4.117,4.918-5.6,8.006-5.947,11.209-1.03,8.236,4.346,14.3,11.323,14.3h10.981a7.337,7.337,0,0,0,6.291-3.2c2.059-3.088.8-6.634-1.716-7.435a8.731,8.731,0,0,0-2.4-.343h-7.549a7.173,7.173,0,0,1-2.173-.343c-2.059-.686-3.2-3.2-1.945-6.177,0.915-2.4,2.86-5.032,7.435-9.379l0.572-.572a7.7,7.7,0,0,0,2.288,0c3.317-.572,5.376-2.4,5.833-4.346,1.03-4.118-1.144-6.635-5.033-6.635H161.762c-2.973,0-3.431-.228-3.774-1.83L157.53,245.7c-0.572-2.859-3.2-4.346-6.519-3.2-1.487.457-2.631,1.715-3.889,4.689l-5.605,13.955a28.4,28.4,0,0,0-1.03,2.86C139.687,266.858,142.089,269.832,145.52,269.832Zm39.925-7.435c-6.405,13.726-.686,23.906,9.036,25.05,7.778,0.915,11.553-.343,13.955-3.2,1.144,2.059,5.834,3.2,5.834,3.2h7.892a7.485,7.485,0,0,0,6.291-3.2c2.059-3.088.8-6.634-1.716-7.435a8.731,8.731,0,0,0-2.4-.343h-6.977l20.36-50.1a9.7,9.7,0,0,0,.572-1.945,4.909,4.909,0,0,0-5.033-6.291c-3.088,0-5.948,1.945-7.435,5.6l-11.667,28.939a14.413,14.413,0,0,0-2.745-2.517C204.089,245.469,191.393,249.586,185.445,262.4Zm20.017,11.553a5.379,5.379,0,0,1-1.944,2.059,4.219,4.219,0,0,1-2.288.686h-2.288c-3.2,0-4.689-1.945-4-6.52a11.8,11.8,0,0,1,1.029-3.66,15.782,15.782,0,0,1,1.945-3.317c2.516-3.317,5.033-4.69,7.549-4.69,3.088-.114,5.033,2.288,4.461,4.461l-0.229.458-0.114.457Zm42.9-25.279a22.473,22.473,0,0,0-16.243,12.582,20.93,20.93,0,0,0-2.173,6.863c-1.944,12.354,4.118,19.331,15.9,19.331h15.442a7.337,7.337,0,0,0,6.291-3.2c2.059-3.088.8-6.634-1.716-7.435a8.736,8.736,0,0,0-2.4-.343H247.333c-3.889,0-5.376-1.144-5.719-3.774H251.68c10.98,0,16.128-5.72,14.412-14.527C264.719,251.531,257.856,246.956,248.363,248.671Zm-3.432,13.383a7.414,7.414,0,0,1,4.575-3.2c3.661-.686,5.376.687,5.262,2.4a1.718,1.718,0,0,1-1.258,1.716,8.707,8.707,0,0,1-3.889.572h-5.605A10.477,10.477,0,0,1,244.931,262.054Zm42.9-38.432c-12.124,9.036-14.641,24.592-8.121,33.514a18.128,18.128,0,0,0,12.354,7.206c6.862,1.029,12.124-1.144,14.183-4.461,1.944-3.089.686-6.749-2.516-7.778a8.7,8.7,0,0,0-2.4-.343h-1.716l-1.258.114h-0.572c-6.406.114-9.837-4.918-7.206-11.781a14.476,14.476,0,0,1,3.66-5.6,14.075,14.075,0,0,1,6.291-3.546c6.062-1.373,8.235,1.029,8.807,12.125a29.8,29.8,0,0,1,.115,3.2l0.8,33.857c0.229,7.321,3.546,10.409,9.608,9.265,2.4-.457,4.461-2.058,7.092-6.519l31-52.044h7.092a8.243,8.243,0,0,0,6.862-3.546c2.288-3.317.916-7.206-1.944-8.007a6.716,6.716,0,0,0-2.631-.458H355.2c-4,0-7.206,3.661-7.206,3.661-0.572,1.144-1.144,2.173-1.144,2.173l-24.478,41.521,0.114-19.9c0-23.791-6.176-30.54-23.1-27.68A25.393,25.393,0,0,0,287.831,223.622ZM372.6,287.447a7.638,7.638,0,0,0,6.291-3.2c1.945-3.088.8-6.634-1.83-7.435a8.736,8.736,0,0,0-2.4-.343H367.8l7.778-19.1a12.534,12.534,0,0,0,.572-1.944,5,5,0,0,0-5.033-6.406c-3.088,0-5.833,1.945-7.435,5.72l-8.807,21.732c-2.631,6.634.229,10.981,8.464,10.981H372.6Zm5.376-41.521a6.982,6.982,0,1,0-9.608-9.379,6.473,6.473,0,0,0-.8,3.546,6.786,6.786,0,0,0,8.693,6.519A3.871,3.871,0,0,0,377.978,245.926Zm5.838,16.471c-6.406,13.726-.687,23.906,9.036,25.05,7.778,0.915,11.552-.343,13.954-3.2,1.144,2.059,5.834,3.2,5.834,3.2h7.892a7.484,7.484,0,0,0,6.291-3.2c2.059-3.088.8-6.634-1.715-7.435a8.741,8.741,0,0,0-2.4-.343h-6.978l20.36-50.1a9.634,9.634,0,0,0,.572-1.945,4.909,4.909,0,0,0-5.033-6.291c-3.088,0-5.947,1.945-7.434,5.6l-11.667,28.939a14.388,14.388,0,0,0-2.746-2.517C402.46,245.469,389.763,249.586,383.816,262.4Zm20.016,11.553a5.379,5.379,0,0,1-1.944,2.059,4.219,4.219,0,0,1-2.288.686h-2.287c-3.2,0-4.69-1.945-4-6.52a11.833,11.833,0,0,1,1.03-3.66,15.822,15.822,0,0,1,1.944-3.317c2.517-3.317,5.033-4.69,7.549-4.69,3.089-.114,5.033,2.288,4.461,4.461l-0.228.458-0.115.457Zm26.773-11.9c-6.748,13.955-.457,24.707,9.379,25.393a25.949,25.949,0,0,0,2.974.114c6.063,0,8.236-.915,10.409-3.546,0.915,2.288,5.834,3.432,5.834,3.432h7.663a7.636,7.636,0,0,0,6.291-3.2c2.059-3.088.8-6.634-1.715-7.435a8.954,8.954,0,0,0-2.517-.343h-6.634l7.206-17.843,0.572-1.373c0.229-.686.458-1.487,0.686-2.173a4.97,4.97,0,0,0-5.147-6.063,7.107,7.107,0,0,0-6.52,3.775c-4-6.177-15.784-6.749-24.477,3.2A26.528,26.528,0,0,0,430.605,262.054Zm19.9,11.9a6.22,6.22,0,0,1-2.86,2.4,4.586,4.586,0,0,1-1.716.343h-1.944c-2.974,0-4.69-2.288-4-6.863a15.178,15.178,0,0,1,1.945-5.147c0.343-.458.686-1.03,1.029-1.487,1.945-2.631,4-4,5.834-4.461,3.431-.915,6.177,1.029,6.177,3.317v0.915l-0.229.458-0.115.457Z" transform="translate(-22.594 -211.594)"/>
  <path id="rádio" class="cls-2" d="M137.767,228.569c0.864,0,1.465-.451,2.029-1.84l0.563-1.39h1.728a3.009,3.009,0,0,0-.564.638c-1.352,1.616-1.84,2.63-1.953,3.681-0.338,2.705,1.428,4.7,3.719,4.7h3.605a2.41,2.41,0,0,0,2.066-1.051,1.578,1.578,0,0,0-.563-2.442,2.864,2.864,0,0,0-.789-0.112h-2.479a2.359,2.359,0,0,1-.713-0.113,1.413,1.413,0,0,1-.639-2.028,9.014,9.014,0,0,1,2.441-3.08l0.188-.188a2.488,2.488,0,0,0,.751,0,2.2,2.2,0,0,0,1.916-1.427,1.579,1.579,0,0,0-1.653-2.179H143.1c-0.977,0-1.127-.075-1.24-0.6l-0.15-.488a1.5,1.5,0,0,0-2.141-1.052,2.293,2.293,0,0,0-1.277,1.54l-1.84,4.583a9.2,9.2,0,0,0-.338.939A1.59,1.59,0,0,0,137.767,228.569Zm14.274-2.554c-2.216,4.582-.15,8.113,3.08,8.338a8.382,8.382,0,0,0,.976.038c1.991,0,2.7-.3,3.418-1.164,0.3,0.751,1.916,1.126,1.916,1.126h2.516a2.51,2.51,0,0,0,2.066-1.051,1.578,1.578,0,0,0-.563-2.442,2.936,2.936,0,0,0-.827-0.112h-2.178l2.366-5.86,0.188-.45c0.075-.226.15-0.489,0.225-0.714a1.632,1.632,0,0,0-1.69-1.991,2.333,2.333,0,0,0-2.141,1.24c-1.314-2.029-5.183-2.216-8.038,1.051A8.73,8.73,0,0,0,152.041,226.015Zm11.831-6.5a1.506,1.506,0,0,0,.338-0.188l2.066-1.652a2.215,2.215,0,0,0,.376-0.451,1.161,1.161,0,0,0-.6-1.69,3.23,3.23,0,0,0-.864-0.075H164.21a2.278,2.278,0,0,0-1.465,1.014c-0.338.864-.638,1.728-0.638,1.728l-0.113.338a1.028,1.028,0,0,0,.225,1.051A1.256,1.256,0,0,0,163.872,219.517Zm-5.3,10.4a2.035,2.035,0,0,1-.939.789,1.508,1.508,0,0,1-.563.113h-0.639c-0.976,0-1.54-.752-1.314-2.254a4.973,4.973,0,0,1,.638-1.69c0.113-.15.226-0.338,0.338-0.488a3.6,3.6,0,0,1,1.916-1.465,1.464,1.464,0,0,1,2.028,1.089v0.3l-0.075.15-0.038.15Zm10.293-3.793c-2.1,4.507-.226,7.85,2.967,8.225,2.554,0.3,3.793-.112,4.582-1.051a3.755,3.755,0,0,0,1.916,1.051h2.591a2.459,2.459,0,0,0,2.066-1.051,1.578,1.578,0,0,0-.563-2.442,2.864,2.864,0,0,0-.789-0.112h-2.291l6.686-16.452a3.131,3.131,0,0,0,.187-0.638,1.612,1.612,0,0,0-1.652-2.066,2.672,2.672,0,0,0-2.442,1.84l-3.831,9.5a4.72,4.72,0,0,0-.9-0.826C174.991,220.569,170.822,221.921,168.869,226.128Zm6.573,3.793a1.761,1.761,0,0,1-.639.676,1.384,1.384,0,0,1-.751.226H173.3c-1.052,0-1.54-.639-1.315-2.141a3.884,3.884,0,0,1,.338-1.2,5.2,5.2,0,0,1,.639-1.089,3.179,3.179,0,0,1,2.479-1.54,1.286,1.286,0,0,1,1.464,1.465l-0.075.15-0.037.15Zm15.212,4.432a2.51,2.51,0,0,0,2.066-1.051,1.584,1.584,0,0,0-.6-2.442,2.864,2.864,0,0,0-.789-0.112h-2.253l2.554-6.273a4.161,4.161,0,0,0,.188-0.638,1.641,1.641,0,0,0-1.653-2.1,2.7,2.7,0,0,0-2.441,1.878l-2.892,7.137c-0.864,2.178.075,3.605,2.779,3.605h3.042Zm1.766-13.634a2.292,2.292,0,1,0-3.155-3.08A2.121,2.121,0,0,0,189,218.8a2.228,2.228,0,0,0,2.854,2.14A1.265,1.265,0,0,0,192.42,220.719Zm15.25,7.475a6.1,6.1,0,0,0-.939-4.583c-2.254-3.042-7.7-2.892-10.63,1.127a7.779,7.779,0,0,0-1.465,4.507c-0.037,3.681,2.291,5.672,7.024,5.033A6.662,6.662,0,0,0,207.67,228.194Zm-8.451-1.39a3.906,3.906,0,0,1,1.464-1.465,1.97,1.97,0,0,1,3.043,1.127,3.207,3.207,0,0,1,.037,1.352,3.123,3.123,0,0,1-3,2.967H200.27a1.651,1.651,0,0,1-1.652-1.84A4.032,4.032,0,0,1,199.219,226.8Z" transform="translate(-22.594 -211.594)"/>
</svg>
